<svg width="2032" height="649" viewBox="0 0 2032 649" fill="none" xmlns="http://www.w3.org/2000/svg">
<path d="M88.5772 0.484741C89.063 0.489238 89.5487 0.493735 90.0491 0.498369C91.2408 0.510052 92.4322 0.526406 93.6237 0.547042C93.6237 1.04047 93.6237 1.53391 93.6237 2.04229C93.2947 2.04229 92.9658 2.04229 92.6269 2.04229C92.6269 3.02915 92.6269 4.01601 92.6269 5.03278C93.0894 5.1767 93.552 5.32062 94.0287 5.4689C95.6173 6.02961 95.6173 6.02961 97.1126 7.02644C98.1892 7.29673 98.1892 7.29673 99.3788 7.47424C102.111 7.98438 104.618 8.82859 107.206 9.83003C107.66 10.0054 108.114 10.1808 108.582 10.3615C115.143 12.9627 122.163 16.1803 125.491 22.7265C126.136 24.0065 126.136 24.0065 127.018 24.9694C128.351 25.2695 129.41 25.195 130.765 25.0453C132.656 24.9292 133.835 25.6009 135.491 26.4647C135.655 25.6423 135.82 24.8199 135.989 23.9726C138.124 24.6346 138.969 25.3807 140.132 27.2746C140.387 27.6819 140.642 28.0893 140.905 28.5089C141.185 28.9773 141.185 28.9773 141.472 29.4551C141.801 28.9617 142.129 28.4683 142.468 27.9599C143.126 28.1244 143.784 28.2889 144.462 28.4583C144.615 29.0973 144.615 29.0973 144.772 29.7491C144.906 30.2997 145.04 30.8504 145.179 31.4177C145.312 31.967 145.445 32.5163 145.582 33.0823C145.823 34.3866 145.823 34.3866 146.456 34.9377C147.883 34.9742 149.297 34.9838 150.723 34.9689C151.326 34.9655 151.326 34.9655 151.941 34.9621C152.937 34.9562 153.933 34.9472 154.929 34.9377C155.205 35.5076 155.481 36.0775 155.766 36.6646C156.131 37.4078 156.495 38.1509 156.86 38.8939C157.133 39.4582 157.133 39.4582 157.411 40.0338C157.588 40.392 157.765 40.7502 157.947 41.1192C158.189 41.6165 158.189 41.6165 158.437 42.1237C158.875 43.0023 158.875 43.0023 159.913 43.4108C161.075 43.5643 162.237 43.6644 163.404 43.769C164.399 43.9092 164.399 43.9092 164.897 44.4076C165.047 45.3191 165.178 46.2335 165.302 47.1489C165.843 50.517 166.806 53.2523 168.698 56.0892C170.576 57.3249 172.667 57.5459 174.865 57.8648C175.05 58.7592 175.05 58.7592 175.239 59.6716C175.954 62.4614 176.979 64.2749 179.445 65.8706C180.075 66.1981 180.709 66.5196 181.345 66.8363C186.784 69.6936 186.784 69.6936 187.824 71.322C188.126 73.6773 187.919 76.0028 187.326 78.2999C187.608 78.4566 187.89 78.6134 188.181 78.7749C188.546 78.9882 188.912 79.2015 189.288 79.4213C189.653 79.6295 190.017 79.8376 190.392 80.0521C191.472 80.9195 191.63 81.4377 191.812 82.7856C192.305 82.7856 192.798 82.7856 193.307 82.7856C193.471 82.4567 193.636 82.1277 193.805 81.7888C194.077 82.313 194.077 82.313 194.354 82.8479C195.564 85.1303 196.759 87.3205 198.353 89.3585C199.799 91.2122 200.827 93.1023 201.78 95.246C202.196 96.1095 202.196 96.1095 202.621 96.9904C203.614 99.6751 203.558 102.579 203.668 105.409C203.768 107.352 203.768 107.352 204.272 109.202C205.261 109.842 205.261 109.842 206.266 110.198C206.266 110.856 206.266 111.514 206.266 112.192C206.595 112.192 206.923 112.192 207.262 112.192C207.262 112.686 207.262 113.179 207.262 113.687C207.591 113.687 207.92 113.687 208.259 113.687C208.595 114.402 208.926 115.119 209.256 115.837C209.441 116.236 209.626 116.635 209.817 117.046C210.253 118.173 210.253 118.173 210.253 119.668C210.746 119.668 211.24 119.668 211.748 119.668C211.866 119.939 211.983 120.21 212.105 120.489C216.863 132.073 216.863 132.073 225.369 140.904C226.967 142.237 226.865 144.23 227.076 146.184C227.175 147.087 227.175 147.087 227.276 148.009C227.343 148.638 227.41 149.268 227.479 149.916C227.548 150.551 227.618 151.186 227.689 151.84C227.859 153.411 228.028 154.981 228.196 156.551C227.723 156.685 227.25 156.818 226.763 156.956C225.079 157.423 225.079 157.423 224.209 159.043C225.195 159.208 226.182 159.372 227.199 159.542C227.364 160.035 227.528 160.528 227.697 161.037C227 161.985 227 161.985 226.015 162.999C224.741 164.317 223.997 165.184 223.71 167.018C225.026 166.853 226.342 166.689 227.697 166.519C227.573 167.672 227.573 167.672 227.199 169.011C226.867 169.226 226.535 169.441 226.192 169.662C225.071 170.438 225.071 170.438 224.989 171.825C224.988 172.606 224.988 172.606 224.987 173.404C224.81 177.165 223.902 180.589 222.215 183.964C221.134 184.91 221.134 184.91 220.221 185.459C218.991 184.885 218.204 184.439 217.231 183.466C216.573 183.466 215.915 183.466 215.237 183.466C215.073 183.794 214.908 184.123 214.739 184.462C215.212 184.524 215.684 184.586 216.172 184.649C217.729 184.961 217.729 184.961 218.726 185.958C218.925 188.231 218.812 189.9 218.009 192.032C216.938 194.912 216.869 197.865 216.732 200.91C217.884 200.91 219.035 200.91 220.221 200.91C220.288 201.958 220.337 203.007 220.377 204.056C220.406 204.64 220.435 205.224 220.465 205.826C220.384 206.342 220.304 206.858 220.221 207.389C218.997 208.283 218.997 208.283 217.729 208.885C217.056 210.231 217.062 211.436 216.95 212.934C216.909 213.48 216.867 214.027 216.824 214.589C216.794 215.009 216.763 215.43 216.732 215.863C215.745 215.863 214.759 215.863 213.742 215.863C213.579 216.193 213.417 216.524 213.249 216.865C210.629 222.161 210.629 222.161 209.754 223.339C208.713 223.648 208.713 223.648 207.761 223.837C207.893 224.151 208.026 224.464 208.162 224.787C210.135 229.569 211.016 234.185 211.748 239.288C211.805 239.681 211.863 240.074 211.921 240.48C212.032 241.245 212.14 242.011 212.247 242.777C209.318 242.634 207.729 241.325 205.767 239.288C205.603 238.959 205.438 238.63 205.269 238.291C205.105 238.575 204.941 238.858 204.772 239.15C202.147 243.411 198.283 247.021 193.307 248.26C189.078 248.702 185.383 248.784 181.843 246.266C180.369 244.607 180.087 243.088 180.167 240.873C180.502 238.861 181.45 237.118 182.342 235.301C183.481 232.542 183.637 229.777 183.837 226.828C181.001 225.838 178.356 225.679 175.358 225.601C173.533 225.272 173.008 224.783 171.875 223.339C171.396 222.542 170.939 221.731 170.504 220.909C169.025 218.416 167.555 216.616 164.897 215.364C163.79 215.156 162.678 214.971 161.564 214.803C159.874 214.48 159.874 214.48 158.418 213.869C157.449 212.415 156.966 211.04 156.422 209.383C154.907 204.821 151.03 203.189 146.989 201.161C146.484 200.914 145.979 200.667 145.459 200.412C145.876 199.438 145.876 199.438 146.456 198.418C147.764 198.044 147.764 198.044 148.948 197.92C148.783 197.591 148.619 197.262 148.449 196.923C147.046 196.689 147.046 196.689 145.428 196.611C144.877 196.574 144.327 196.537 143.759 196.498C143.333 196.474 142.907 196.45 142.468 196.424C142.359 196.075 142.25 195.725 142.137 195.365C140.002 188.975 135.937 184.853 130.693 180.755C127.164 177.916 125.134 174.699 123.529 170.507C121.39 170.342 119.252 170.178 117.049 170.008C116.985 168.944 116.985 168.944 116.919 167.859C116.849 166.914 116.778 165.969 116.707 165.024C116.667 164.325 116.667 164.325 116.626 163.613C116.328 159.913 115.362 157.186 112.567 154.655C110.436 153.443 108.479 152.614 106.084 152.065C106.028 151.649 106.028 151.649 105.971 151.224C105.414 147.992 104.161 146.085 102.097 143.592C100.18 140.93 100.18 140.93 99.7604 139.138C98.8915 137.11 97.625 136.352 95.8627 135.082C94.5731 134.086 93.5189 133.008 92.4088 131.817C90.8022 130.106 89.6861 129.431 87.4558 128.764C86.1942 128.208 86.1942 128.208 85.1506 127.145C84.1852 124.213 84.0843 121.028 83.7987 117.973C82.8757 109.633 78.8547 101.449 75.5873 93.813C71.8865 85.1519 70.0886 77.2269 69.6997 67.8331C69.2063 67.6687 68.7129 67.5042 68.2045 67.3347C68.2045 67.8282 68.2045 68.3216 68.2045 68.83C67.5466 68.83 66.8887 68.83 66.2108 68.83C65.9572 66.1669 66.6468 64.9731 68.2045 62.849C68.369 62.3556 68.5335 61.8621 68.7029 61.3537C68.2403 61.5079 68.2403 61.5079 67.7684 61.6652C67.4189 61.7269 67.0694 61.7886 66.7093 61.8522C65.2987 60.4416 65.5367 59.0513 65.506 57.16C65.4964 56.7964 65.4867 56.4327 65.4768 56.058C65.447 54.8951 65.4239 53.7322 65.4009 52.5692C65.3819 51.7813 65.3624 50.9934 65.3425 50.2056C65.2946 48.273 65.2527 46.3404 65.214 44.4076C64.0627 44.0787 62.9113 43.7497 61.7251 43.4108C61.7251 43.0818 61.7251 42.7529 61.7251 42.4139C62.9587 42.1672 62.9587 42.1672 64.2172 41.9155C64.0527 40.7642 63.8882 39.6129 63.7188 38.4266C63.3898 38.4266 63.0608 38.4266 62.7219 38.4266C61.5627 36.6153 61.644 35.0519 61.7251 32.9441C62.2185 32.9441 62.712 32.9441 63.2203 32.9441C63.3437 32.5123 63.4671 32.0805 63.5942 31.6357C64.2595 29.8393 65.0281 28.4684 66.2108 26.9631C66.7043 26.9631 67.1977 26.9631 67.7061 26.9631C68.1161 25.5266 68.2685 24.2478 68.2707 22.7557C68.2713 22.3417 68.272 21.9276 68.2726 21.5009C68.2707 21.0727 68.2688 20.6445 68.2668 20.2033C68.2687 19.7732 68.2707 19.343 68.2726 18.8998C68.272 18.4864 68.2714 18.0729 68.2707 17.647C68.2701 17.2708 68.2696 16.8945 68.269 16.5069C68.2409 15.397 68.2409 15.397 67.7061 14.0043C67.6424 12.6715 67.6842 11.3522 67.7061 10.0169C67.2127 10.0169 66.7192 10.0169 66.2108 10.0169C66.2108 9.52351 66.2108 9.03007 66.2108 8.52169C66.5231 8.4613 66.8353 8.4009 67.157 8.33868C67.5644 8.25516 67.9717 8.17163 68.3914 8.08558C68.9986 7.96415 68.9986 7.96415 69.618 7.84026C70.7896 7.59135 70.7896 7.59135 71.6934 6.52803C71.8145 5.31183 71.8145 5.31183 71.7557 3.97365C71.7467 3.52005 71.7377 3.06646 71.7285 2.59911C71.7169 2.25088 71.7053 1.90265 71.6934 1.54387C72.9235 2.11792 73.7109 2.56455 74.6839 3.53754C74.6839 4.03097 74.6839 4.5244 74.6839 5.03278C76.1642 5.03278 77.6445 5.03278 79.1696 5.03278C79.1491 4.64215 79.1285 4.25152 79.1073 3.84905C79.1696 2.5407 79.1696 2.5407 80.1665 1.54387C82.9208 0.285507 85.6154 0.432567 88.5772 0.484741Z" fill="#BACD01"/>
<path d="M383.421 99.436C384.7 99.732 384.7 99.732 385.818 101.219C386.588 102.245 386.939 102.665 388.205 102.953C389.395 102.981 390.553 102.935 391.74 102.847C392.541 102.804 393.342 102.765 394.143 102.73C394.495 102.706 394.847 102.682 395.21 102.657C396.164 102.722 396.164 102.722 397.659 103.719C399.1 103.952 400.508 104.136 401.958 104.28C402.341 104.323 402.725 104.366 403.12 104.41C408.269 105.075 408.269 105.075 413.11 103.719C414.446 103.853 415.188 104.272 416.326 105C418.786 105.992 420.903 105.706 423.514 105.557C428.459 105.423 428.459 105.423 430.523 106.42C431.543 107.45 432.277 108.473 433.046 109.7C433.736 110.557 434.432 111.408 435.134 112.255C436.001 113.357 436.864 114.462 437.715 115.578C439.726 118.134 442.125 119.742 445.008 121.164C446.307 134.296 446.307 134.296 443.466 138.213C441.959 139.904 440.283 141.35 438.514 142.759C435.997 144.896 433.944 147.526 432.205 150.321C431.771 151.014 431.771 151.014 431.327 151.721C430.644 152.908 430.094 154.079 429.558 155.336C428.561 157.05 428.561 157.05 426.847 157.766C425.791 157.933 424.733 158.084 423.67 158.202C423.31 158.315 422.95 158.428 422.58 158.545C422.243 159.374 421.912 160.205 421.583 161.037C420.846 162.243 420.098 163.418 419.309 164.588C419.088 164.918 418.866 165.247 418.638 165.586C415.711 169.885 412.362 173.798 408.857 177.634C408.073 178.492 407.292 179.352 406.514 180.216C402.607 184.529 398.563 188.702 394.47 192.838C393.682 193.637 392.897 194.439 392.115 195.243C390.972 196.42 389.819 197.586 388.664 198.751C388.318 199.111 387.971 199.472 387.615 199.843C385.518 201.931 384.269 202.725 381.211 202.904C380.517 203.71 379.856 204.545 379.218 205.396C378.28 206.052 377.319 206.623 376.324 207.187C375.136 207.913 375.136 207.913 373.827 209.087C371.985 210.653 369.942 211.726 367.815 212.853C365.804 213.954 364.37 215.234 362.77 216.86C361.68 216.766 361.68 216.766 360.776 216.361C359.679 216.256 359.679 216.256 358.72 217.233C356.309 219.121 353.664 220.221 350.808 221.283C348.079 222.353 345.192 223.783 343.721 226.423C343.593 226.721 343.464 227.019 343.332 227.326C342.833 227.266 342.833 227.266 342.325 227.204C338.554 226.945 336.566 227.836 333.568 230.101C332.367 230.815 332.367 230.815 331.274 230.735C330.373 230.317 330.373 230.317 329.376 229.32C328.887 229.963 328.399 230.607 327.912 231.251C327.64 231.61 327.368 231.968 327.088 232.338C326.366 233.279 326.366 233.279 325.887 234.304C324.73 234.656 323.567 234.988 322.398 235.301C322.234 235.465 322.069 235.63 321.9 235.799C321.173 235.84 320.446 235.869 319.719 235.893C316.974 236.125 315.103 237.148 312.798 238.603C311.433 239.288 311.433 239.288 309.763 239.516C307.592 239.839 306.031 240.604 304.113 241.625C303.413 241.987 302.714 242.349 302.014 242.711C301.67 242.891 301.327 243.071 300.973 243.256C300.046 243.735 299.114 244.197 298.174 244.65C297.646 244.906 297.118 245.162 296.574 245.425C295.875 245.761 295.875 245.761 295.163 246.105C293.991 246.677 293.991 246.677 293.334 247.516C292.209 248.511 291.306 248.613 289.832 248.863C289.041 249.005 289.041 249.005 288.234 249.15C287.397 249.296 287.397 249.296 286.543 249.444C280.167 250.638 274.32 251.979 269.566 256.733C268.691 256.79 267.816 256.843 266.94 256.877C261.903 257.075 257.724 257.72 253.512 260.677C252.186 261.482 251.177 261.833 249.639 261.509C249.307 261.413 248.975 261.317 248.633 261.219C243.775 260.654 239.14 262.23 234.578 263.74C232.471 264.262 230.632 264.323 228.478 264.271C228.113 264.267 227.749 264.262 227.373 264.258C226.485 264.246 225.597 264.228 224.709 264.209C224.702 263.535 224.702 263.535 224.695 262.848C224.672 261.149 224.642 259.45 224.605 257.751C224.591 257.022 224.581 256.292 224.574 255.563C224.528 251.126 224.179 247.357 222.591 243.147C222.173 241.62 222.223 240.782 222.715 239.288C223.728 238.317 223.728 238.317 224.958 237.45C226.598 236.359 226.598 236.359 227.699 234.803C227.804 233.887 227.883 232.969 227.949 232.05C227.99 231.5 228.031 230.95 228.073 230.383C228.114 229.806 228.155 229.229 228.198 228.635C228.279 227.499 228.362 226.363 228.447 225.228C228.483 224.722 228.519 224.217 228.556 223.697C228.677 222.527 228.886 221.479 229.195 220.349C229.556 217.089 229.046 215.61 227.201 212.872C227.294 211.049 227.623 209.613 228.198 207.888C229.678 208.382 231.158 208.875 232.683 209.383C232.683 204.285 232.683 199.186 232.683 193.933C233.67 193.768 234.657 193.604 235.674 193.434C235.674 193.105 235.674 192.776 235.674 192.437C235.016 192.273 234.358 192.108 233.68 191.939C234.667 190.294 235.654 188.649 236.671 186.955C237.493 187.119 238.316 187.284 239.163 187.453C239.327 187.124 239.492 186.795 239.661 186.456C239.168 186.456 238.674 186.456 238.166 186.456C238.166 185.963 238.166 185.469 238.166 184.961C238.731 184.766 239.297 184.57 239.879 184.369C241.756 183.672 241.756 183.672 242.122 182.126C242.132 181.746 242.143 181.366 242.153 180.974C241.495 180.974 240.838 180.974 240.16 180.974C240.324 180.151 240.489 179.329 240.658 178.482C241.809 178.646 242.961 178.811 244.147 178.98C244.418 178.615 244.418 178.615 244.694 178.242C245.526 177.125 246.363 176.012 247.2 174.899C247.626 174.324 247.626 174.324 248.06 173.738C250.106 171.029 252.313 168.227 255.611 167.018C256.268 167.018 256.926 167.018 257.604 167.018C257.429 166.741 257.255 166.463 257.075 166.177C256.468 164.68 256.649 164.079 257.106 162.532C257.182 162.228 257.257 161.923 257.336 161.609C258.119 158.974 259.355 157.737 261.471 156.043C262.76 154.904 263.766 153.665 264.831 152.315C267.802 148.605 270.426 145.944 275.049 144.589C275.378 144.589 275.707 144.589 276.046 144.589C276.046 143.603 276.046 142.616 276.046 141.599C276.328 141.52 276.61 141.441 276.9 141.359C277.449 141.185 277.449 141.185 278.008 141.007C278.372 140.897 278.737 140.787 279.112 140.674C280.175 140.158 280.175 140.158 280.409 138.801C280.469 138.212 280.469 138.212 280.531 137.612C280.856 137.569 281.182 137.525 281.516 137.481C284.59 137.005 284.59 137.005 287.135 135.338C288.651 133.994 289.51 133.766 291.496 133.624C291.322 133.254 291.147 132.884 290.967 132.503C290.5 131.132 290.5 131.132 290.5 130.073C291.457 128.277 293.374 127.839 295.231 127.248C299.746 125.783 302.898 123.313 306.169 119.918C311.464 114.536 311.464 114.536 314.706 113.958C316.813 114.087 317.675 114.447 319.19 115.962C319.426 116.363 319.663 116.763 319.906 117.177C320.163 116.663 320.42 116.149 320.685 115.619C323.582 110.587 328.737 108.806 334.027 107.249C335.361 106.856 336.686 106.451 338.011 106.03C338.553 105.858 338.553 105.858 339.106 105.683C339.816 105.457 340.526 105.23 341.236 105.002C343.72 104.218 343.72 104.218 344.827 104.218C345.105 104.516 345.382 104.814 345.668 105.121C347.125 106.499 348.446 106.99 350.31 107.707C350.31 108.2 350.31 108.693 350.31 109.202C350.875 108.976 351.44 108.75 352.023 108.517C353.508 107.946 354.876 107.599 356.446 107.364C359.083 106.839 360.873 105.316 362.932 103.657C365.479 101.872 368.168 101.327 371.243 101.726C371.936 101.951 372.622 102.201 373.299 102.473C375.071 103.184 376.291 103.623 378.221 103.221C379.289 102.371 380.247 101.475 381.198 100.495C382.208 99.732 382.208 99.732 383.421 99.436Z" fill="#F5A500"/>
<path d="M85.1894 0.000259903C88.4992 0.0094537 91.8091 0.0263261 95.1188 0.0489333C94.4318 1.59472 94.0197 2.8013 94.122 4.53467C104.048 9.25493 120.381 12.5929 125.491 22.7268C126.135 24.0068 126.135 24.0068 127.017 24.9697C128.351 25.2698 129.41 25.1953 130.765 25.0456C132.656 24.9295 133.835 25.6012 135.49 26.465C135.655 25.6426 135.819 24.8202 135.989 23.9729C138.806 24.8464 140.061 27.0993 141.471 29.4554C141.8 28.962 142.129 28.4686 142.468 27.9602C143.126 28.1247 143.784 28.2892 144.462 28.4586C144.894 30.2601 145.067 33.729 146.456 34.938C149.278 35.0102 152.105 34.965 154.929 34.938C155.959 37.0625 157.538 42.4764 159.913 43.4111C161.397 43.6072 163.766 43.2769 164.897 44.4079C165.579 48.5682 166.297 52.4894 168.697 56.0895C170.576 57.3252 172.667 57.5462 174.865 57.8651C175.534 61.0957 176.516 63.9759 179.444 65.8709C182.339 67.3742 186.015 68.4905 187.824 71.3223C188.126 73.6776 187.918 76.0031 187.326 78.3002C189.339 79.4191 191.469 80.2393 191.811 82.7859C193.017 82.7859 193.267 82.8656 193.805 81.7891C197.212 88.5767 203.798 94.2201 203.96 102.193C204.038 105.547 204.778 107.554 206.754 110.263C213.229 119.468 226.107 137.205 227.076 146.184C227.454 149.639 227.827 153.095 228.196 156.551C226.394 157.061 225.157 157.278 224.208 159.043C225.195 159.208 226.182 159.372 227.199 159.542C227.363 160.035 227.528 160.529 227.697 161.037C226.244 163.014 224.114 164.44 223.71 167.018C225.026 166.854 226.342 166.689 227.697 166.52C227.347 169.761 224.611 177.872 223.212 180.974C222.219 180.974 222.215 180.977 222.215 181.971C219.694 182.811 216.889 182.469 214.24 182.469C214.24 183.127 214.24 183.785 214.24 184.463C215.932 184.651 217.462 184.695 218.726 185.958C219.164 190.952 216.958 195.863 216.732 200.91C217.884 200.91 219.035 200.91 220.221 200.91C220.361 203.088 220.557 205.235 220.221 207.39C218.996 208.283 218.996 208.283 217.729 208.885C216.707 210.928 216.895 213.601 216.732 215.863C215.745 215.863 214.758 215.863 213.742 215.863C212.504 218.382 211.433 221.076 209.754 223.339C208.713 223.649 208.713 223.649 207.761 223.837C210.205 229.017 210.406 234.673 210.751 240.285C209.929 240.45 209.106 240.614 208.259 240.784C207.93 240.126 207.601 239.468 207.262 238.79C206.269 238.79 206.265 238.786 206.265 237.793C200.063 237.793 195.696 254.378 183.837 247.263C183.837 245.773 183.831 245.768 182.342 245.768C182.342 244.593 182.558 244.273 181.345 244.273C181.273 242.435 180.529 237.295 183.338 237.295C184.133 234.072 183.874 230.629 183.837 227.326C181.003 225.811 178.558 225.64 175.358 225.584C172.737 225.142 171.647 223.067 170.504 220.909C169.025 218.416 167.555 216.616 164.897 215.364C162.693 214.951 160.5 214.743 158.418 213.869C157.449 212.416 156.966 211.04 156.422 209.383C154.787 204.459 149.747 202.512 145.459 200.412C145.875 199.438 145.875 199.438 146.456 198.418C147.764 198.044 147.764 198.044 148.948 197.92C147.988 196 144.515 196.542 142.468 196.425C139.127 185.732 128.262 181.875 124.152 172.002C123.342 169.238 119.996 169.723 117.548 169.51C117.105 163.819 116.274 159.927 113.021 155.124C110.826 153.558 108.713 152.625 106.084 152.066C104.946 143.592 97.7913 137.593 92.4087 131.818C90.2795 129.55 87.261 129.275 85.1505 127.145C84.3489 124.73 84.2472 122.144 84.0018 119.626C82.7444 107.277 73.9264 96.9179 73.1885 84.7796C70.5908 84.7796 70.2889 68.6459 70.198 66.3382C69.3757 66.3382 68.5533 66.3382 67.706 66.3382C67.6165 64.3708 67.6594 63.0496 68.7028 61.354C67.7159 61.6008 67.7159 61.6008 66.7091 61.8525C63.4064 57.6881 64.6833 49.5274 64.7155 44.4079C63.4283 44.4079 62.7218 44.0285 62.7218 45.4047C62.0639 45.2403 61.406 45.0758 60.7281 44.9063C60.5724 43.7849 60.5724 43.7849 60.7281 42.4142C61.9742 41.2617 61.9742 41.2617 63.2202 40.4206C61.7763 38.2999 60.7647 36.1714 60.8644 33.5187C61.7352 30.9393 64.8225 29.752 67.2075 28.957C67.3462 27.4972 67.1371 25.0401 68.2044 23.9729C68.3729 19.2193 67.6188 14.723 67.706 10.0172C66.2163 10.0172 66.2107 10.0119 66.2107 8.522C68.1373 8.14937 70.3723 8.08256 71.6933 6.52833C71.8579 4.87454 71.7484 3.20375 71.6933 1.54418C74.3102 2.77534 75.5986 4.24481 78.6711 4.53467C78.4567 2.9394 78.1629 2.53775 76.6774 2.0426C79.6573 0.724563 81.8874 -0.0159264 85.1894 0.000259903Z" fill="#BACD01"/>
<path d="M383.421 99.436C385.101 99.8248 385.446 100.725 386.442 102.05C389.371 104.677 394.083 101.104 397.104 103.455C405.335 109.423 421.27 101.953 430.523 106.42C435.593 111.541 438.133 117.773 445.008 121.164C445.997 131.173 446.393 136.479 438.513 142.759C434.806 145.906 431.19 155.998 426.847 157.735C418.015 159.285 411.745 174.238 406.28 180.441C401.938 185.361 389.596 202.46 381.211 202.904C376.12 208.816 368.226 211.316 362.769 216.86C357.441 216.403 346.036 221.916 343.331 227.326C338.315 226.715 333.098 233.042 329.376 229.32C328.165 230.911 326.736 232.486 325.887 234.304C314.572 237.739 301.206 246.935 289.831 248.863C267.396 252.895 248.781 264.873 224.708 264.209C224.636 257.222 225.085 249.759 222.591 243.147C221.334 238.559 225.511 237.894 227.699 234.803C228.663 226.375 225.941 214.657 228.197 207.888C230.165 208.902 232.021 208.809 234.178 208.387C234.178 207.212 234.394 206.891 233.181 206.891C233.09 202.7 234.491 198.652 233.181 194.431C235.138 194.105 238.157 192.433 235.175 190.942C235.869 188.628 237.586 188.618 239.661 187.952C240.849 185.39 241.841 183.836 242.153 180.974C239.86 180.974 240.222 180.662 240.658 178.482C248.942 179.665 248.677 167.018 257.604 167.018C252.944 159.617 270.694 144.589 276.045 144.589C276.045 139.494 286.318 133.994 291.496 133.624C286.532 123.113 350.309 99.2138 350.309 109.202C356.37 106.778 364.989 100.915 371.242 101.726C373.551 102.476 375.71 103.744 378.22 103.221C379.94 101.852 381.217 99.9737 383.421 99.436Z" fill="#F5A500"/>
<path d="M176.453 274.707C181.352 275.911 185.014 278.577 188.989 281.563C189.798 282.138 190.657 282.641 191.515 283.141C192.808 284.146 192.808 284.146 193.082 285.399C193.043 285.849 193.004 286.299 192.963 286.762C192.868 288.436 192.793 289.965 193.057 291.622C194.038 298.62 194.038 298.62 191.811 301.59C191.811 303.307 192.107 303.593 193.057 304.954C195.601 309.443 194.405 315.045 193.68 319.938C193.626 320.328 193.571 320.719 193.515 321.121C193.059 323.824 193.059 323.824 191.867 324.749C190.93 324.986 189.984 325.19 189.038 325.39C187.198 325.859 187.198 325.859 186.359 327.57C186.185 328.043 186.01 328.516 185.83 329.003C186.981 329.168 188.132 329.332 189.319 329.501C189.036 331.504 188.69 333.494 188.322 335.482C188.247 335.889 188.172 336.295 188.094 336.713C186.261 346.317 183.054 353.39 176.858 360.902C176.222 361.699 175.588 362.498 174.958 363.3C174.542 363.821 174.542 363.821 174.117 364.352C173.351 365.413 172.805 366.494 172.217 367.661C171.621 368.67 171.621 368.67 170.877 369.375C169.791 369.394 169.791 369.394 168.541 369.219C167.225 369.031 167.225 369.031 165.893 369.375C162.835 372.307 160.018 376.276 159.04 380.433C158.269 382.169 157.585 382.207 155.897 382.875C154.22 383.663 152.905 384.88 151.501 386.072C147.611 389.239 144.551 390.585 139.477 390.308C139.292 390.879 139.292 390.879 139.103 391.461C138.384 393.006 137.919 393.4 136.487 394.295C134.709 394.92 132.916 395.463 131.111 396.003C129.135 396.971 128.759 397.744 128.014 399.778C127.849 400.436 127.685 401.094 127.515 401.772C125.87 401.772 124.226 401.772 122.531 401.772C121.701 403.728 121.1 405.705 120.537 407.753C119.972 407.855 119.407 407.958 118.824 408.064C117.008 408.5 115.781 409.211 114.276 410.307C112.309 411.7 111.032 412.133 108.575 411.74C108.082 411.411 107.588 411.082 107.08 410.743C106.918 411.019 106.755 411.296 106.588 411.58C106.37 411.941 106.152 412.303 105.928 412.675C105.714 413.033 105.5 413.392 105.279 413.761C104.588 414.731 104.588 414.731 103.093 415.727C102.599 415.727 102.106 415.727 101.598 415.727C101.089 415.07 100.591 414.405 100.102 413.734C99.6089 413.569 99.1154 413.405 98.607 413.235C98.5042 413.513 98.4014 413.79 98.2955 414.076C96.0444 417.862 91.7858 419.409 87.7977 420.649C81.6466 422.469 81.6466 422.469 76.7391 426.35C75.7363 427.478 75.3669 427.678 73.8284 427.773C72.7918 427.717 71.7554 427.658 70.7191 427.596C68.5306 427.731 67.3042 428.68 65.6318 430.026C64.7148 430.68 64.7148 430.68 63.2195 430.68C62.9728 428.953 62.9728 428.953 62.7211 427.191C62.3922 428.013 62.0632 428.836 61.7243 429.683C60.244 429.847 58.7637 430.012 57.2386 430.181C57.0741 431.004 56.9096 431.826 56.7401 432.673C54.9428 433.392 53.8032 433.675 51.8494 433.515C49.014 433.411 47.2953 435.399 45.2766 437.159C43.5699 438.297 43.2401 438.202 41.2893 438.031C38.9581 437.979 37.6183 438.365 35.6198 439.558C30.5821 442.534 25.7731 442.768 20.0443 442.798C19.5216 442.8 18.9988 442.803 18.4602 442.806C15.0109 442.774 11.7643 442.374 8.39383 441.645C8.29947 441.275 8.2051 440.906 8.10788 440.525C7.49029 438.125 6.80256 435.83 5.83945 433.546C5.01221 431.558 4.54371 429.839 4.40651 427.689C5.5619 426.534 8.37172 426.961 9.93581 426.881C10.4138 426.819 10.8918 426.757 11.3843 426.692C11.5488 426.364 11.7133 426.035 11.8827 425.696C11.1756 424.375 11.1756 424.375 10.2006 422.954C8.59111 420.518 7.83017 419.345 7.86427 416.413C7.86876 415.913 7.87326 415.413 7.8779 414.898C7.88368 414.514 7.88946 414.13 7.89542 413.734C6.5796 414.063 5.26378 414.392 3.90809 414.731C4.15481 414.381 4.40152 414.031 4.65572 413.671C5.53375 411.988 5.58829 411.126 5.40334 409.248C4.68071 407.94 4.68071 407.94 3.69004 406.756C2.23877 404.926 1.5844 403.627 1.41602 401.273C2.03904 400.495 2.03904 400.495 2.91126 399.778C3.4156 398.951 3.9144 398.12 4.40651 397.286C4.89994 396.793 4.89994 396.793 5.40334 396.289C4.90991 395.827 4.90991 395.827 4.40651 395.355C2.95972 393.094 2.96285 391.43 3.40968 388.813C3.78687 387.445 4.24725 386.122 4.74917 384.794C4.87052 384.462 4.99187 384.129 5.1169 383.786C5.50263 382.846 5.50263 382.846 6.40017 381.337C7.6871 380.809 7.6871 380.809 8.89225 380.838C9.2212 381.167 9.55016 381.496 9.88908 381.835C10.3825 381.835 10.8759 381.835 11.3843 381.835C11.3914 381.435 11.3985 381.036 11.4057 380.624C11.5762 376.56 12.2883 373.012 13.4381 369.128C14.2909 366.246 14.9324 363.379 15.3717 360.403C16.009 360.29 16.6463 360.177 17.303 360.061C18.4009 359.816 18.4009 359.816 19.359 359.406C20.0264 358.236 20.0264 358.236 20.3558 356.914C21.3215 355.762 21.3215 355.762 22.3495 354.921C22.8429 354.921 23.3363 354.921 23.8447 354.921C23.8042 354.632 23.7638 354.342 23.7221 354.045C23.47 350.927 23.47 350.927 24.4989 349.576C25.4128 348.811 26.3563 348.126 27.3336 347.444C27.9733 346.922 28.607 346.393 29.2338 345.856C29.5146 345.622 29.7954 345.389 30.0846 345.149C31.2107 344.088 31.7943 343.277 31.9167 341.722C31.9051 341.277 31.8936 340.832 31.8817 340.373C31.8727 339.924 31.8637 339.475 31.8544 339.012C31.8428 338.67 31.8313 338.327 31.8194 337.975C32.4043 337.802 32.4043 337.802 33.0012 337.626C33.5055 337.463 34.0099 337.301 34.5295 337.133C35.0326 336.977 35.5356 336.821 36.0539 336.66C36.4658 336.436 36.8776 336.212 37.3019 335.981C37.6285 334.748 37.6285 334.748 37.8003 333.489C38.6161 332.77 38.6161 332.77 39.6383 332.212C39.9968 332.005 40.3553 331.798 40.7246 331.585C41.2508 331.294 41.2508 331.294 41.7877 330.997C44.1685 329.604 45.268 328.605 46.2734 326.013C46.6218 324.649 46.6218 324.649 46.7718 323.52C48.2564 323.545 48.2564 323.545 49.7409 323.569C50.8604 323.562 50.8604 323.562 52.2544 323.022C52.6734 322.214 53.0642 321.391 53.4381 320.561C54.3944 318.881 54.8085 318.167 56.6876 317.61C57.8035 317.498 58.9205 317.398 60.0382 317.308C62.9015 316.855 64.922 315.25 67.2069 313.552C67.6116 313.275 68.0164 312.997 68.4334 312.711C69.8796 311.715 69.8796 311.715 71.1942 310.562C71.1942 310.068 71.1942 309.575 71.1942 309.066C71.5231 309.066 71.8521 309.066 72.191 309.066C72.3555 309.56 72.52 310.053 72.6894 310.562C75.1517 310.79 75.1517 310.79 77.2998 309.752C78.2775 308.425 78.986 307.076 79.6673 305.578C79.9962 305.578 80.3252 305.578 80.6641 305.578C80.8286 305.906 80.993 306.235 81.1625 306.574C83.3829 306.328 83.3829 306.328 85.6482 306.076C85.6482 305.397 85.6482 304.719 85.6482 304.02C85.9169 302.772 85.9169 302.772 86.6451 301.59C88.2191 300.796 89.735 300.252 91.4065 299.715C94.9059 298.577 97.6397 296.789 100.601 294.612C101.513 293.967 102.427 293.323 103.342 292.681C103.92 292.267 103.92 292.267 104.51 291.844C106.657 290.405 107.868 289.944 110.516 290.347C112.238 290.803 113.563 291.655 115.055 292.619C115.249 292.396 115.443 292.173 115.643 291.943C120.47 286.726 127.422 285.241 133.995 283.149C134.159 283.642 134.324 284.136 134.493 284.644C137.364 283.999 139.144 282.959 141.471 281.155C141.8 281.32 142.129 281.484 142.468 281.654C142.632 280.831 142.797 280.009 142.966 279.161C145.554 278.621 147.993 278.638 150.617 278.702C151.534 278.716 152.451 278.729 153.369 278.741C154.799 278.762 156.229 278.787 157.659 278.824C166.306 279.094 166.306 279.094 173.922 275.338C174.865 274.676 174.865 274.676 176.453 274.707Z" fill="#5AC3EF"/>
<path d="M220.721 286.14C223.022 286.772 224.782 287.747 226.737 289.07C228.394 290.033 229.956 290.189 231.85 290.176C232.248 290.174 232.646 290.172 233.057 290.171C233.468 290.167 233.879 290.162 234.303 290.158C234.722 290.156 235.141 290.154 235.572 290.151C236.603 290.145 237.633 290.137 238.664 290.127C239.157 291.114 239.651 292.101 240.159 293.117C240.611 292.974 241.064 292.83 241.53 292.681C244.074 292.296 245.929 293.684 248.095 294.868C249.923 295.752 251.582 296.081 253.587 296.299C254.959 296.71 255.318 297.441 256.108 298.6C257.152 298.997 257.152 298.997 258.102 299.098C258.215 299.623 258.328 300.147 258.445 300.687C259.032 302.697 259.897 303.799 261.591 305.079C262.115 305.141 262.64 305.203 263.18 305.266C265.917 305.715 268.123 307.084 270.064 309.067C270.457 310.681 270.457 310.681 270.563 312.057C271.385 312.222 272.207 312.386 273.055 312.556C273.394 313.55 273.725 314.547 274.051 315.546C274.175 315.906 274.298 316.266 274.425 316.636C274.55 317.54 274.55 317.54 273.553 319.035C274.211 318.871 274.869 318.706 275.547 318.537C276.935 320.021 277.628 321.206 278.101 323.147C278.901 325.879 280.735 327.193 282.933 328.885C284.264 330.251 284.431 331.109 284.518 332.991C284.354 333.32 284.189 333.649 284.02 333.988C284.513 334.152 285.007 334.316 285.515 334.486C286.009 335.393 286.009 335.393 286.449 336.542C287.1 338.145 287.754 339.344 288.879 340.654C290.551 342.838 290.294 345.316 290.001 347.943C289.836 348.437 289.672 348.93 289.502 349.438C289.996 349.274 290.489 349.109 290.998 348.94C291.558 350.809 291.558 350.809 290.998 351.931C291.378 352.064 291.758 352.198 292.15 352.335C293.464 352.916 294.164 353.256 294.985 354.423C295.078 355.762 295.078 355.762 294.985 356.915C294.327 356.421 293.669 355.928 292.991 355.419C293.219 356.903 293.632 357.617 294.518 358.877C295.518 360.459 295.778 361.08 295.483 362.896C295.154 363.389 294.825 363.883 294.486 364.391C295.309 364.391 296.131 364.391 296.979 364.391C296.814 364.72 296.65 365.049 296.48 365.388C295.987 365.388 295.493 365.388 294.985 365.388C295.093 365.751 295.201 366.115 295.312 366.49C296.174 369.723 296.599 372.661 296.558 375.995C296.554 376.573 296.554 376.573 296.551 377.164C296.503 381.573 296.25 385.97 295.982 390.371C295.933 391.194 295.885 392.018 295.838 392.841C295.722 394.822 295.604 396.802 295.483 398.782C294.99 398.288 294.496 397.795 293.988 397.286C293.478 398.816 293.423 399.89 293.427 401.492C293.426 401.964 293.425 402.436 293.423 402.923C293.439 404.24 293.439 404.24 293.799 405.37C293.862 405.663 293.924 405.956 293.988 406.258C293.085 407.286 293.085 407.286 291.994 408.251C291.665 408.745 291.336 409.238 290.998 409.747C291.177 409.97 291.357 410.193 291.543 410.422C293.455 412.914 293.455 412.914 293.645 414.7C293.568 415.209 293.568 415.209 293.49 415.728C292.338 415.728 291.187 415.728 290.001 415.728C290.006 416.095 290.011 416.462 290.017 416.84C290.037 418.504 290.05 420.169 290.063 421.833C290.071 422.411 290.08 422.988 290.088 423.584C290.092 424.139 290.095 424.695 290.098 425.268C290.103 425.779 290.108 426.291 290.114 426.818C289.998 428.223 289.673 428.964 289.004 430.182C288.811 431.341 288.64 432.504 288.505 433.671C287.683 434 286.861 434.329 286.013 434.667C286.096 435.068 286.178 435.469 286.263 435.882C286.457 437.265 286.59 438.572 286.636 439.963C286.649 440.329 286.662 440.696 286.675 441.073C286.446 442.577 286.151 443.095 285.017 444.137C283.464 444.449 281.923 444.416 280.344 444.402C279.885 444.404 279.426 444.406 278.953 444.408C277.983 444.409 277.012 444.406 276.042 444.397C274.555 444.387 273.07 444.397 271.583 444.41C270.64 444.409 269.698 444.406 268.756 444.402C268.31 444.406 267.865 444.41 267.406 444.414C266.262 444.397 265.204 444.368 264.083 444.137C263.137 443.134 263.137 443.134 262.588 442.144C261.785 442.06 260.982 441.978 260.178 441.904C256.569 441.038 253.694 438.551 251.8 435.474C250.645 434.095 249.055 433.557 247.445 432.824C243.046 430.638 238.49 426.786 236.67 422.207C235.849 421.852 235.017 421.522 234.178 421.21C232.788 419.949 231.731 418.786 230.689 417.223C230.689 416.73 230.689 416.236 230.689 415.728C230.36 415.728 230.031 415.728 229.692 415.728C229.528 416.057 229.363 416.386 229.194 416.725C219.983 403.458 212.869 389.174 207.762 373.861C207.6 373.383 207.6 373.383 207.434 372.895C201.115 354.236 199.136 334.224 201.688 314.705C201.77 314.074 201.852 313.444 201.937 312.794C202.658 307.864 202.658 307.864 204.273 305.578C205.284 305.023 205.284 305.023 206.267 304.581C206.943 303.845 206.943 303.845 207.544 302.992C209.494 300.606 212.045 299.052 214.74 297.603C215.069 297.603 215.398 297.603 215.737 297.603C215.597 296.865 215.45 296.128 215.301 295.391C215.22 294.981 215.139 294.57 215.055 294.147C214.899 293.638 214.899 293.638 214.74 293.117C214.411 292.953 214.082 292.789 213.743 292.619C213.579 292.948 213.414 293.277 213.245 293.616C212.466 293.055 212.466 293.055 211.749 292.121C211.905 290.532 211.905 290.532 212.248 289.13C212.412 289.459 212.577 289.788 212.746 290.127C213.055 289.88 213.363 289.634 213.681 289.379C214.74 288.632 214.74 288.632 215.737 288.632C215.737 288.303 215.737 287.974 215.737 287.635C216.066 287.635 216.395 287.635 216.734 287.635C216.569 288.457 216.405 289.28 216.235 290.127C218.22 289.08 219.4 287.949 220.721 286.14Z" fill="#4564AB"/>
<path d="M176.453 274.707C182.291 276.142 186.476 280.206 191.515 283.141C195.643 286.349 195.529 321.906 191.867 324.749C188.645 325.565 187.045 325.713 185.83 329.003C186.981 329.167 188.132 329.332 189.319 329.501C187.454 342.69 182.503 353.87 174.117 364.352C172.941 365.981 172.351 367.978 170.877 369.375C169.158 369.405 167.589 368.937 165.893 369.375C163.034 372.116 159.805 376.215 159.211 380.205C157.823 385.512 144.083 390.395 139.477 390.308C137.381 396.772 129.346 394.45 127.515 401.772C125.87 401.772 124.226 401.772 122.531 401.772C121.701 403.728 121.1 405.705 120.537 407.753C115.87 408.601 111.625 413.773 107.08 410.743C105.717 413.059 104.615 415.727 101.598 415.727C100.603 414.443 100.138 413.746 98.607 413.235C96.4264 419.123 77.3848 427.994 70.7191 427.596C67.6881 427.782 66.1475 430.68 63.2195 430.68C62.9728 428.953 62.9728 428.953 62.7211 427.191C61.5385 430.147 60.397 429.83 57.2386 430.181C55.1569 440.59 17.5814 443.633 8.39383 441.645C7.21332 437.02 4.71156 432.468 4.40651 427.689C5.94799 426.148 9.30696 426.963 11.3843 426.692C12.6306 424.2 7.8351 417.742 7.89542 413.734C6.5796 414.063 5.26378 414.391 3.90809 414.73C7.90529 409.068 1.81117 406.798 1.41602 401.273C2.73373 399.626 3.91143 397.781 5.40334 396.289C2.20826 393.294 2.90851 380.693 8.89225 380.838C9.78671 381.733 10.1172 381.835 11.3843 381.835C11.5153 374.429 14.3016 367.654 15.3717 360.403C21.8827 359.248 32.3746 344.218 31.8194 337.974C36.9316 336.467 46.0358 329.059 46.7718 323.52C52.5239 323.615 51.7502 321.831 55.2449 318.038C61.2426 316.536 78.0481 309.14 79.6673 305.577C81.6023 305.577 82.9319 306.378 85.6482 306.076C85.6482 300.549 104.078 289.368 110.516 290.347C112.238 290.803 113.563 291.655 115.055 292.619C119.942 287.003 127.224 285.423 133.995 283.149C135.049 286.313 142.468 282.104 142.468 279.66C147.232 278.024 152.706 278.657 157.687 278.796C164.737 279.024 170.239 274.585 176.453 274.707Z" fill="#5AC3EF"/>
<path d="M220.721 286.14C223.022 286.772 224.782 287.747 226.737 289.07C229.896 290.905 235.061 290.16 238.664 290.127C239.157 291.114 239.651 292.101 240.159 293.117C246.728 291.027 252.522 298.502 258.102 299.098C259.12 303.817 269.771 311.899 273.055 312.556C273.882 314.983 275.066 316.766 273.553 319.035C276.459 318.308 285.715 330.597 284.02 333.988C288.738 335.56 290.883 345.295 289.502 349.438C291.458 348.787 291.496 349.916 291.496 351.931C294.134 352.885 294.88 354.144 294.985 356.915C294.327 356.421 293.669 355.928 292.991 355.419C293.671 359.836 298.039 364.624 294.985 365.388C298.155 376.069 296.149 387.837 295.483 398.782C294.99 398.288 294.496 397.795 293.988 397.286C293.009 400.222 293.364 403.323 293.988 406.258C292.947 407.442 291.875 408.431 290.998 409.747C292.514 411.626 293.868 413.23 293.49 415.728C292.338 415.728 291.187 415.728 290.001 415.728C290.094 422.276 289.233 427.363 288.505 433.671C287.683 434 286.861 434.329 286.013 434.667C286.642 437.733 287.592 441.77 285.017 444.137C280.373 445.069 265.016 446.521 262.588 442.144C255.626 441.418 253.284 435.484 247.445 432.824C243.087 430.658 239.353 426.865 236.359 423.079C234.282 420.446 230.689 419.552 230.689 415.728C229.699 415.728 229.637 415.838 229.194 416.725C219.806 403.204 212.727 388.453 207.434 372.895C201.115 354.236 199.136 334.224 201.688 314.705C202.112 311.449 202.331 308.327 204.273 305.578C208.152 303.448 210.997 297.603 215.737 297.603C214.751 292.411 211.16 293.582 212.248 289.13C213.116 290.866 214.811 288.947 216.235 288.133C216.235 288.791 216.235 289.449 216.235 290.127C218.22 289.08 219.4 287.949 220.721 286.14Z" fill="#4564AB"/>
<path d="M318.908 252.247C320.753 252.774 321.393 253.234 322.615 254.77C323.766 256.366 323.766 256.366 325.543 256.671C325.985 256.691 326.427 256.712 326.883 256.733C327.191 256.008 327.191 256.008 327.506 255.269C328.378 253.742 328.378 253.742 329.468 253.306C329.767 253.286 330.065 253.265 330.372 253.244C330.372 254.231 330.372 255.218 330.372 256.235C331.155 255.794 331.155 255.794 331.955 255.345C332.642 254.966 333.329 254.588 334.016 254.21C334.361 254.015 334.705 253.821 335.059 253.621C335.969 253.124 336.907 252.682 337.848 252.247C338.341 252.412 338.835 252.576 339.343 252.746C339.014 253.732 338.685 254.719 338.346 255.736C338.675 255.736 339.004 255.736 339.343 255.736C339.343 255.078 339.343 254.42 339.343 253.742C340.166 253.953 340.985 254.173 341.804 254.397C342.261 254.518 342.718 254.639 343.188 254.765C343.564 254.921 343.94 255.077 344.327 255.238C344.492 255.731 344.656 256.225 344.826 256.733C348.773 256.733 352.721 256.733 356.788 256.733C356.788 257.391 356.788 258.049 356.788 258.727C357.155 258.721 357.522 258.716 357.9 258.711C359.564 258.69 361.229 258.677 362.893 258.664C363.76 258.652 363.76 258.652 364.644 258.639C365.199 258.636 365.755 258.633 366.328 258.629C367.095 258.621 367.095 258.621 367.878 258.613C369.258 258.727 370.068 259.014 371.242 259.723C371.242 260.052 371.242 260.381 371.242 260.72C371.735 260.556 372.229 260.391 372.737 260.222C374.379 260.188 376.015 260.223 377.657 260.253C379.149 260.301 379.149 260.301 380.231 259.879C381.21 259.723 381.21 259.723 382.608 260.426C384.907 261.57 387.033 261.425 389.563 261.466C391.453 261.76 392.045 262.192 393.172 263.711C393.297 265.081 393.297 265.081 393.172 266.203C393.666 266.203 394.159 266.203 394.667 266.203C394.667 265.874 394.667 265.545 394.667 265.206C395.161 265.37 395.654 265.535 396.163 265.704C396.327 266.527 396.492 267.349 396.661 268.196C396.826 267.539 396.99 266.881 397.159 266.203C398.25 266.016 398.25 266.016 399.652 266.203C400.644 267.12 401.341 268.093 402.144 269.193C402.802 269.029 403.459 268.864 404.137 268.695C404.639 269.336 405.136 269.981 405.633 270.626C406.049 271.164 406.049 271.164 406.474 271.713C407.128 272.682 407.128 272.682 407.128 273.679C407.416 273.515 407.703 273.35 408 273.181C409.121 272.682 409.121 272.682 411.115 272.682C410.786 273.505 410.457 274.327 410.118 275.174C410.54 275.128 410.961 275.082 411.395 275.034C415.976 274.743 415.976 274.743 417.776 275.992C418.427 276.697 419.064 277.417 419.686 278.149C422.862 281.724 429.182 283.031 433.731 283.336C435.604 283.66 435.981 284.07 437.118 285.653C438.642 288.413 439.753 290.881 439.525 294.114C440.25 293.975 440.25 293.975 440.989 293.834C441.744 293.726 441.744 293.726 442.515 293.616C443.288 294.388 443.122 295.161 443.171 296.234C443.192 296.66 443.213 297.086 443.235 297.524C443.264 298.195 443.264 298.195 443.294 298.88C443.316 299.33 443.337 299.779 443.359 300.242C443.412 301.356 443.463 302.47 443.512 303.584C443.183 303.584 442.854 303.584 442.515 303.584C442.51 303.938 442.505 304.292 442.5 304.657C441.758 306.836 440.159 307.629 438.279 308.849C437.916 309.09 437.554 309.332 437.18 309.581C434.739 311.182 432.309 312.559 429.556 313.552C427.751 314.206 426.381 314.98 424.853 316.138C422.807 317.596 420.726 318.849 418.498 320.001C417.936 320.293 417.374 320.585 416.794 320.886C414.95 321.585 413.568 321.649 411.614 321.527C411.614 322.185 411.614 322.843 411.614 323.521C410.836 323.703 410.057 323.878 409.277 324.05C408.844 324.148 408.41 324.247 407.963 324.348C406.55 324.528 405.509 324.372 404.137 324.019C404.137 323.69 404.137 323.361 404.137 323.022C403.664 323.382 403.192 323.742 402.704 324.112C400.884 325.417 398.982 326.38 396.965 327.342C395.626 328.026 394.4 328.807 393.141 329.626C390.895 330.995 388.853 331.755 386.194 331.495C384.917 330.779 384.917 330.779 384.201 330C384.036 330.493 383.872 330.987 383.702 331.495C383.271 331.218 383.271 331.218 382.83 330.935C382.46 330.791 382.09 330.647 381.709 330.498C381.04 330.822 380.375 331.155 379.715 331.495C378.407 331.402 378.407 331.402 377.223 330.997C376.894 330.503 376.565 330.01 376.226 329.502C375.96 329.682 375.694 329.861 375.42 330.047C372.784 331.689 371.041 332.16 367.959 331.984C366.345 331.997 365.156 332.506 363.686 333.123C355.949 336.211 344.902 333.275 337.431 330.465C334.903 329.719 332.313 329.626 329.692 329.44C329.282 329.405 328.871 329.369 328.448 329.332C328.076 329.305 327.703 329.277 327.319 329.249C326.384 329.003 326.384 329.003 325.388 327.508C325.325 326.168 325.325 326.168 325.388 325.016C324.367 325.297 324.367 325.297 323.394 326.013C323.065 327.53 323.065 327.53 322.896 329.003C316.873 326.919 310.978 324.789 306.946 319.533C306.604 318.431 306.604 318.431 306.448 317.54C306.16 317.704 305.872 317.869 305.576 318.038C304.454 318.536 304.454 318.536 302.461 318.536C302.26 318.074 302.26 318.074 302.056 317.602C301.486 316.394 301.486 316.394 299.968 315.546C298.961 315.519 298.961 315.519 297.881 315.639C293.319 315.705 290.167 312.003 286.926 309.17C285.628 308.158 284.574 307.581 283.022 307.073C283.063 306.538 283.105 306.004 283.147 305.453C283.001 303.264 282.585 303 281.029 301.59C281.029 300.932 281.029 300.275 281.029 299.597C280.74 299.662 280.45 299.726 280.153 299.793C278.912 300.012 277.803 300.149 276.543 300.095C274.954 298.943 274.954 298.943 273.552 297.603C271.951 296.943 271.951 296.943 270.562 296.606C270.891 295.948 271.22 295.29 271.559 294.613C271.117 294.592 270.675 294.571 270.219 294.55C268.306 294.045 267.951 293.385 266.824 291.838C265.408 290.485 263.473 290.365 261.59 290.127C261.642 289.674 261.693 289.222 261.746 288.756C261.756 287.058 261.756 287.058 260.438 285.984C258.535 284.789 256.972 284.545 254.768 284.364C254.025 284.301 254.025 284.301 253.267 284.237C252.889 284.207 252.51 284.177 252.121 284.146C250.803 281.49 250.383 279.434 250.438 276.483C250.441 276.112 250.444 275.741 250.447 275.359C250.513 272.562 250.994 270.279 252.121 267.698C257.721 268.976 257.721 268.976 259.628 270.066C262.006 271.078 264.065 270.589 266.575 270.19C266.982 270.129 267.389 270.068 267.808 270.004C269.206 269.789 270.601 269.556 271.995 269.318C272.451 269.246 272.908 269.174 273.378 269.1C276.228 268.58 277.594 267.962 279.533 265.704C282.13 263.72 284.803 262.842 287.868 261.861C289.664 261.264 291.013 260.709 292.597 259.63C294.15 258.621 294.74 258.55 296.542 258.727C300.447 258.875 303.991 257.673 307.289 255.611C310.374 253.92 314.512 254.6 317.911 254.739C318.24 253.917 318.569 253.094 318.908 252.247Z" fill="#E20520"/>
<path d="M27.741 187.329C30.1493 188.769 32.838 189.49 35.4995 190.321C37.1909 190.903 38.7175 191.599 40.2948 192.437C39.8014 191.204 39.8014 191.204 39.298 189.945C40.5106 189.339 41.31 189.381 42.6623 189.385C43.0812 189.383 43.5001 189.382 43.9317 189.381C45.279 189.447 45.279 189.447 46.6807 189.69C47.9142 189.888 49.0305 189.994 50.2709 190.033C50.6166 190.045 50.9622 190.057 51.3184 190.069C52.0347 190.091 52.7512 190.106 53.4678 190.116C54.5074 190.158 54.5074 190.158 56.2441 190.444C56.9839 191.462 56.9839 191.462 57.2409 192.437C57.5185 192.052 57.5185 192.052 57.8016 191.659C58.7362 190.942 58.7362 190.942 60.138 190.973C61.7267 191.441 61.7267 191.441 63.2531 192.469C64.7862 193.48 65.4245 193.644 67.2092 193.434C67.2092 193.105 67.2092 192.776 67.2092 192.437C68.1438 192.531 68.1438 192.531 69.2029 192.936C69.8259 194.213 69.8259 194.213 70.1997 195.428C70.7173 195.205 70.7173 195.205 71.2452 194.978C72.7853 194.396 74.2944 194.014 75.9004 193.652C76.4445 193.528 76.9887 193.404 77.5494 193.277C78.0846 193.164 78.6198 193.052 79.1712 192.936C79.6807 192.798 80.1902 192.66 80.7151 192.517C82.6793 192.409 83.1766 193.188 84.6538 194.431C86.5344 195.001 88.4182 195.402 90.3388 195.815C92.3556 196.502 93.2874 197.277 94.6221 198.917C94.6221 199.246 94.6221 199.575 94.6221 199.914C95.0847 199.544 95.0847 199.544 95.5566 199.166C97.7912 198.093 99.6615 198.3 102.098 198.418C102.937 198.407 102.937 198.407 103.792 198.395C105.477 198.418 106.947 198.485 108.578 198.917C109.733 200.115 110.162 201.311 110.571 202.904C110.736 203.398 110.9 203.891 111.07 204.399C111.625 203.798 111.625 203.798 112.191 203.185C113.904 201.588 113.904 201.588 115.556 201.409C116.777 201.725 116.777 201.725 118.139 202.254C118.89 202.541 118.89 202.541 119.655 202.833C120.184 203.042 120.712 203.25 121.256 203.465C121.797 203.674 122.338 203.884 122.895 204.1C123.963 204.513 125.031 204.929 126.097 205.346C127.233 205.785 128.37 206.207 129.519 206.609C136.083 208.945 142.968 212.695 146.239 219.134C146.594 219.982 146.594 219.982 146.956 220.847C147.511 220.6 147.511 220.6 148.077 220.349C149.448 219.85 149.448 219.85 151.441 219.85C151.642 220.637 151.642 220.637 151.846 221.439C152.559 223.823 152.559 223.823 153.934 225.831C155.096 225.853 156.26 225.851 157.422 225.831C158.268 226.477 159.097 227.144 159.915 227.825C160.679 228.124 161.456 228.394 162.239 228.641C162.644 228.77 163.048 228.899 163.465 229.031C163.774 229.127 164.082 229.222 164.4 229.32C164.456 230.242 164.456 230.242 164.513 231.182C164.991 237.643 166.056 242.978 171.024 247.561C171.871 248.305 171.871 248.305 172.963 248.819C174.456 250.36 174.123 252.179 174.119 254.241C174.207 258.11 174.793 261.145 176.362 264.708C176.543 265.368 176.714 266.032 176.861 266.701C171.256 271.647 165.258 272.087 158.09 271.765C155.981 271.621 153.916 271.262 151.833 270.915C149.372 270.62 146.94 270.574 144.464 270.564C144.017 270.56 143.569 270.555 143.109 270.55C140.676 270.561 138.793 270.833 136.489 271.686C134.958 271.587 133.516 271.414 132.003 271.187C131.047 271.062 130.091 270.938 129.134 270.818C128.156 270.695 127.177 270.567 126.199 270.44C119.876 269.69 113.567 269.543 107.207 269.412C106.226 269.39 105.245 269.368 104.263 269.346C101.88 269.293 99.4973 269.243 97.1142 269.193C96.6207 267.96 96.6207 267.96 96.1173 266.701C95.6239 266.866 95.1305 267.03 94.6221 267.2C91.5356 267.594 89.4089 266.568 86.6299 265.253C85.0391 264.666 83.843 264.608 82.1617 264.708C81.6683 263.392 81.1748 262.076 80.6665 260.72C80.0599 261.039 79.4534 261.358 78.8285 261.686C75.8472 263.253 73.0895 263.28 69.7948 263.244C69.2054 263.24 69.2054 263.24 68.6042 263.237C67.6408 263.231 66.6774 263.222 65.714 263.212C65.5495 261.897 65.385 260.581 65.2156 259.225C64.7221 259.554 64.2287 259.883 63.7203 260.222C60.9577 260.599 59.4972 259.672 57.2409 258.228C57.2409 258.557 57.2409 258.886 57.2409 259.225C56.3064 258.976 56.3064 258.976 55.2473 258.228C54.7564 256.907 54.52 255.634 54.2504 254.241C53.4914 255.705 52.8544 257.19 52.2568 258.727C46.896 257.2 43.1237 254.815 39.7964 250.254C39.185 248.867 39.185 248.867 38.7996 247.762C38.6351 247.762 38.4706 247.762 38.3011 247.762C38.1367 248.748 37.9722 249.735 37.8027 250.752C35.6134 250.068 34.0941 248.87 32.3513 247.433C31.178 246.67 30.2067 246.46 28.8312 246.266C28.8068 245.869 28.7824 245.472 28.7573 245.063C28.4822 241.092 28.4822 241.092 27.336 237.295C27.007 237.295 26.6781 237.295 26.3392 237.295C26.3392 238.446 26.3392 239.598 26.3392 240.784C24.5555 239.365 22.933 237.915 21.427 236.205C21.1741 235.919 20.9211 235.633 20.6604 235.339C20.1572 234.764 19.6601 234.184 19.1701 233.598C17.2853 231.453 15.6127 230.652 12.8819 229.819C12.9128 229.346 12.9436 228.873 12.9754 228.386C12.9446 227.872 12.9137 227.358 12.8819 226.828C12.1418 226.335 12.1418 226.335 11.3867 225.831C11.3867 225.173 11.3867 224.516 11.3867 223.838C11.0577 223.509 10.7288 223.18 10.3899 222.841C10.5836 221.339 11.0201 220.649 11.8851 219.352C9.74691 219.023 7.60871 218.694 5.40571 218.355C4.99998 216.976 4.99998 216.976 4.58605 215.569C4.22591 214.348 3.86573 213.128 3.50551 211.907C3.32786 211.303 3.15021 210.698 2.96718 210.076C2.7921 209.483 2.61702 208.89 2.43664 208.28C2.2665 207.699 2.09636 207.119 1.92106 206.521C1.48233 205.104 0.982002 203.736 0.45271 202.351C-0.147285 200.584 -0.147285 200.584 0.431294 199.172C0.726196 198.872 1.0211 198.572 1.32494 198.263C2.8388 196.713 2.8388 196.713 2.91364 194.431C2.58468 194.267 2.25573 194.102 1.91681 193.933C2.64078 192.024 3.62585 191.381 5.40571 190.444C5.26694 189.596 5.26694 189.596 5.12536 188.731C5.0534 188.145 4.98144 187.559 4.9073 186.955C5.40571 186.457 5.40571 186.457 6.87894 186.408C7.52548 186.414 8.17202 186.419 8.83816 186.425C9.18438 186.427 9.53059 186.429 9.88729 186.431C11.3724 186.439 12.8574 186.453 14.3425 186.467C15.4255 186.476 16.5085 186.482 17.5916 186.488C18.2409 186.493 18.8903 186.499 19.5593 186.505C26.1311 186.327 26.1311 186.327 27.741 187.329Z" fill="#8BB11E"/>
<path d="M318.908 252.247C322.384 253.24 323.067 256.555 326.883 256.733C327.645 254.941 328.25 253.39 330.372 253.244C330.372 254.231 330.372 255.218 330.372 256.235C332.888 254.82 336.537 251.81 339.343 252.746C339.014 253.732 338.685 254.719 338.346 255.736C339.722 255.736 339.343 255.03 339.343 253.742C341.667 254.337 344.031 254.348 344.826 256.733C348.773 256.733 352.721 256.733 356.788 256.733C356.788 257.391 356.788 258.049 356.788 258.727C358.828 258.698 371.242 257.31 371.242 260.72C376.355 259.016 390.022 259.467 393.172 263.711C393.297 265.081 393.297 265.081 393.172 266.203C394.347 266.203 394.667 266.419 394.667 265.206C396.4 265.784 396.302 266.405 396.661 268.196C396.825 267.539 396.99 266.881 397.159 266.203C399.753 265.758 400.697 267.209 402.143 269.193C402.801 269.029 403.459 268.864 404.137 268.695C405.228 270.091 407.128 271.815 407.128 273.679C408.466 272.914 409.544 272.682 411.115 272.682C410.786 273.505 410.457 274.327 410.118 275.174C412.794 274.881 415.46 274.385 417.775 275.992C422.167 280.745 427.134 282.893 433.73 283.336C438.027 284.08 439.788 290.383 439.525 294.114C440.519 293.924 441.513 293.759 442.515 293.616C444.021 295.122 443.425 301.602 443.512 303.584C442.058 303.584 440.196 307.604 438.279 308.849C434.017 311.691 428.898 313.074 424.852 316.138C420.898 318.956 416.632 321.839 411.613 321.527C411.613 322.185 411.613 322.843 411.613 323.521C406.145 324.805 384.808 328.178 383.702 331.495C382.066 330.444 381.471 330.59 379.715 331.495C377.89 331.365 377.213 330.982 376.226 329.502C372.202 332.223 367.944 331.335 363.686 333.123C355.949 336.211 344.902 333.275 337.431 330.465C334.178 329.505 330.69 329.498 327.319 329.249C325.313 328.722 325.294 326.746 325.387 325.016C323.244 325.606 323.129 326.972 322.895 329.003C317.433 327.113 307.614 324.219 306.448 317.54C305.109 318.305 304.031 318.536 302.46 318.536C301.493 316.304 300.39 315.36 297.881 315.639C291.531 315.731 288.609 308.901 283.022 307.073C283.269 303.863 281.028 302.461 281.028 299.597C279.554 299.928 278.06 300.16 276.543 300.095C274.506 298.617 273.065 297.214 270.562 296.606C270.891 295.948 271.22 295.29 271.559 294.613C269.329 294.509 268.148 293.655 266.824 291.838C265.407 290.485 263.473 290.365 261.59 290.127C262.223 284.557 256.491 284.495 252.12 284.146C249.668 279.201 249.938 272.698 252.12 267.698C257.637 268.957 257.637 268.957 259.752 270.034C272.306 276.165 285.204 257.835 296.479 258.758C300.406 258.868 303.97 257.685 307.289 255.611C310.374 253.92 314.511 254.6 317.911 254.739C318.24 253.917 318.569 253.094 318.908 252.247Z" fill="#E20520"/>
<path d="M27.7403 187.329C31.6348 189.657 36.2782 190.303 40.2941 192.437C39.8007 191.204 39.8007 191.204 39.2973 189.945C41.3577 188.915 44.469 189.307 46.6801 189.69C49.8561 190.2 53.0737 189.921 56.2434 190.444C56.9833 191.462 56.9833 191.462 57.2403 192.437C59.9577 188.663 63.758 193.84 67.2086 193.434C67.2086 193.105 67.2086 192.776 67.2086 192.437C68.1431 192.531 68.1431 192.531 69.2022 192.936C69.8252 194.213 69.8252 194.213 70.1991 195.428C73.5092 194.021 79.0325 191.663 82.6594 192.936C85.6083 195.243 94.6214 195.252 94.6214 199.914C96.8075 198.165 99.4047 198.288 102.098 198.418C104.27 198.389 106.459 198.356 108.577 198.917C110.036 200.431 110.427 202.472 111.069 204.399C112.394 202.965 113.516 201.644 115.555 201.409C127.716 204.337 141.56 209.248 146.955 220.847C148.469 220.174 149.758 219.85 151.441 219.85C151.999 222.039 152.643 223.946 153.933 225.831C155.096 225.853 156.259 225.851 157.422 225.831C158.267 226.477 159.097 227.144 159.914 227.825C161.382 228.399 162.894 228.855 164.4 229.32C165.028 239.675 174.132 245.634 174.119 254.241C174.22 258.731 175.928 262.441 176.86 266.701C168.841 273.777 141.397 273.07 129.51 270.689C118.963 268.733 107.846 269.421 97.1135 269.193C96.6201 267.96 96.6201 267.96 96.1167 266.701C91.0815 268.38 87.1567 264.411 82.161 264.708C81.6676 263.392 81.1742 262.076 80.6658 260.72C75.8316 263.26 71.0035 263.265 65.7133 263.212C65.5488 261.897 65.3844 260.581 65.2149 259.225C64.7215 259.554 64.228 259.883 63.7197 260.222C60.957 260.599 59.4966 259.672 57.2403 258.228C57.2403 258.557 57.2403 258.886 57.2403 259.225C56.3057 258.976 56.3057 258.976 55.2466 258.228C54.7557 256.907 54.5193 255.634 54.2498 254.241C53.4907 255.705 52.8537 257.19 52.2561 258.727C46.5397 257.099 40.8293 253.586 38.7989 247.762C37.8025 247.762 37.9455 249.892 37.802 250.752C34.6361 249.763 32.6123 246.859 29.329 246.266C28.8626 243.2 28.2581 240.261 27.3353 237.295C27.0064 237.295 26.6774 237.295 26.3385 237.295C26.3385 238.446 26.3385 239.598 26.3385 240.784C21.7639 237.145 18.6675 231.585 12.8813 229.819C12.9472 228.807 12.942 227.84 12.8813 226.828C12.1411 226.335 12.1411 226.335 11.386 225.831C11.386 224.375 11.411 223.863 10.3892 222.841C10.583 221.339 11.0195 220.649 11.8844 219.352C9.74624 219.023 7.60804 218.694 5.40504 218.355C3.83359 213.014 2.44182 207.556 0.452035 202.351C-0.746419 198.821 2.80051 197.86 2.91296 194.431C2.58401 194.267 2.25505 194.102 1.91613 193.933C2.64011 192.024 3.62517 191.381 5.40504 190.444C5.21502 189.283 5.05006 188.123 4.90662 186.955C5.40504 186.457 5.40504 186.457 6.87826 186.408C11.105 186.446 15.3319 186.468 19.5587 186.505C26.1304 186.327 26.1304 186.327 27.7403 187.329Z" fill="#8BB11E"/>
<path d="M598 243L587.5 209.75H529.25L518.75 243H489L545.75 73H572.25L629.25 243H598ZM545.5 157.75L537.75 182.25H578.75L571 157.75L558.5 114.75L545.5 157.75ZM756.705 255.75C756.705 269.25 751.372 279.75 740.705 287.25C730.205 294.917 715.538 298.75 696.705 298.75C687.872 298.75 678.538 297.75 668.705 295.75C658.872 293.75 649.788 290.417 641.455 285.75L649.705 263C657.705 267 665.622 269.833 673.455 271.5C681.288 273.333 688.955 274.25 696.455 274.25C706.955 274.25 714.955 272.833 720.455 270C725.955 267.167 728.705 263.417 728.705 258.75C728.705 251.583 724.455 248 715.955 248H685.955C677.788 248 671.205 246.667 666.205 244C661.205 241.333 657.538 237.917 655.205 233.75C652.872 229.417 651.705 224.917 651.705 220.25C651.705 215.417 652.705 210.917 654.705 206.75C656.872 202.417 659.788 198.417 663.455 194.75C657.455 191.083 652.622 186.167 648.955 180C645.455 173.833 643.705 166.417 643.705 157.75C643.705 147.917 645.788 139.75 649.955 133.25C654.122 126.75 659.788 121.917 666.955 118.75C674.288 115.417 682.372 113.75 691.205 113.75H695.455C698.788 113.75 702.038 114 705.205 114.5C708.372 114.833 711.372 115.417 714.205 116.25H759.455V140.75L734.455 136.75C736.955 139.417 738.872 142.75 740.205 146.75C741.705 150.583 742.455 155.333 742.455 161C742.455 169.5 740.288 176.833 735.955 183C731.788 189 726.122 193.667 718.955 197C711.955 200.167 704.122 201.75 695.455 201.75H691.205C687.872 201.75 684.705 201.5 681.705 201C679.872 203 678.538 205.083 677.705 207.25C676.872 209.25 676.455 211.167 676.455 213C676.455 218.833 680.205 221.75 687.705 221.75H718.205C729.705 221.75 738.955 224.75 745.955 230.75C753.122 236.583 756.705 244.917 756.705 255.75ZM695.455 178.25C700.622 178.25 705.122 176.5 708.955 173C712.955 169.5 714.955 164.417 714.955 157.75C714.955 151.083 712.955 146 708.955 142.5C705.122 139 700.622 137.25 695.455 137.25H691.205C685.872 137.25 681.205 139 677.205 142.5C673.372 146 671.455 151.083 671.455 157.75C671.455 164.417 673.372 169.5 677.205 173C681.205 176.5 685.872 178.25 691.205 178.25H695.455ZM855.768 142.5C847.934 142.5 840.434 143.75 833.268 146.25C826.268 148.583 819.518 152.417 813.018 157.75V243H784.268V116.25H811.518V135.75C820.018 127.75 827.601 122.083 834.268 118.75C840.934 115.417 848.101 113.75 855.768 113.75V142.5ZM910.447 92.25H880.197V62.5H910.447V92.25ZM909.697 243H880.947V116.25H909.697V243ZM971.307 172.25V187C971.307 197.667 973.223 205.667 977.057 211C980.89 216.333 987.057 219 995.557 219C999.723 219 1004.39 218.5 1009.56 217.5C1014.89 216.333 1020.64 214.583 1026.81 212.25L1035.06 236.5C1027.56 239.5 1020.47 241.75 1013.81 243.25C1007.14 244.75 1000.56 245.5 994.057 245.5C977.39 245.5 964.64 240.167 955.807 229.5C946.973 218.833 942.557 204.667 942.557 187V172.25C942.557 154.417 946.973 140.25 955.807 129.75C964.64 119.083 977.39 113.75 994.057 113.75C1000.39 113.75 1006.81 114.5 1013.31 116C1019.81 117.5 1026.64 119.667 1033.81 122.5L1025.56 147.25C1013.56 142.583 1003.56 140.25 995.557 140.25C987.057 140.25 980.89 142.917 977.057 148.25C973.223 153.417 971.307 161.417 971.307 172.25ZM1136.87 243V226.25C1129.2 232.917 1122.03 237.833 1115.37 241C1108.7 244 1101.95 245.5 1095.12 245.5C1083.78 245.5 1075.03 241.667 1068.87 234C1062.7 226.167 1059.62 215.25 1059.62 201.25V116.25H1088.37V197.75C1088.37 211.75 1093.53 218.75 1103.87 218.75C1108.03 218.75 1112.53 217.75 1117.37 215.75C1122.37 213.75 1128.37 209.917 1135.37 204.25V116.25H1164.12V243H1136.87ZM1202.95 207.25V58H1231.7V207.25C1231.7 209.75 1232.28 212.167 1233.45 214.5C1234.78 216.667 1237.28 217.75 1240.95 217.75H1244.95V244.25H1237.95C1228.45 244.25 1221.2 242.417 1216.2 238.75C1211.2 235.083 1207.7 230.417 1205.7 224.75C1203.87 219.083 1202.95 213.25 1202.95 207.25ZM1349.04 238.75C1344.71 240.75 1339.71 242.333 1334.04 243.5C1328.38 244.833 1322.63 245.5 1316.79 245.5C1307.13 245.5 1299.38 243.5 1293.54 239.5C1287.71 235.5 1283.46 229.917 1280.79 222.75C1278.29 215.583 1277.04 207.417 1277.04 198.25V141.25H1256.54V116.25H1277.04V83.25H1305.79V116.25H1345.29V141.25H1305.79V198.25C1305.79 205.917 1307.21 211.25 1310.04 214.25C1313.04 217.083 1317.29 218.5 1322.79 218.5C1325.46 218.5 1328.29 218.25 1331.29 217.75C1334.46 217.083 1337.96 216 1341.79 214.5L1349.04 238.75ZM1447.66 243V226.25C1439.99 232.917 1432.82 237.833 1426.16 241C1419.49 244 1412.74 245.5 1405.91 245.5C1394.57 245.5 1385.82 241.667 1379.66 234C1373.49 226.167 1370.41 215.25 1370.41 201.25V116.25H1399.16V197.75C1399.16 211.75 1404.32 218.75 1414.66 218.75C1418.82 218.75 1423.32 217.75 1428.16 215.75C1433.16 213.75 1439.16 209.917 1446.16 204.25V116.25H1474.91V243H1447.66ZM1585.99 142.5C1578.16 142.5 1570.66 143.75 1563.49 146.25C1556.49 148.583 1549.74 152.417 1543.24 157.75V243H1514.49V116.25H1541.74V135.75C1550.24 127.75 1557.83 122.083 1564.49 118.75C1571.16 115.417 1578.33 113.75 1585.99 113.75V142.5ZM1707.42 235.75C1698.76 239.25 1690.59 241.75 1682.92 243.25C1675.26 244.75 1668.01 245.5 1661.17 245.5C1642.34 245.5 1628.09 240.167 1618.42 229.5C1608.76 218.833 1603.92 204.667 1603.92 187V172C1603.92 160.167 1606.09 149.917 1610.42 141.25C1614.76 132.583 1620.92 125.833 1628.92 121C1636.92 116.167 1646.34 113.75 1657.17 113.75C1666.01 113.75 1674.26 115.583 1681.92 119.25C1689.76 122.75 1696.09 128.333 1700.92 136C1705.92 143.5 1708.42 153.167 1708.42 165C1708.42 168.5 1708.17 172.25 1707.67 176.25C1707.17 180.083 1706.34 184.167 1705.17 188.5H1631.67C1632.01 198.833 1634.59 206.583 1639.42 211.75C1644.26 216.917 1652.01 219.5 1662.67 219.5C1668.34 219.5 1674.17 218.833 1680.17 217.5C1686.34 216.167 1692.67 214.167 1699.17 211.5L1707.42 235.75ZM1657.17 138C1649.51 138 1643.51 140.5 1639.17 145.5C1635.01 150.333 1632.59 157.333 1631.92 166.5H1679.92C1680.09 165.667 1680.17 164.917 1680.17 164.25C1680.17 163.417 1680.17 162.667 1680.17 162C1680.17 154 1677.92 148 1673.42 144C1668.92 140 1663.51 138 1657.17 138ZM558 447.5C553.833 447.5 549.583 447.083 545.25 446.25C541.083 445.417 536.833 444.25 532.5 442.75V498.25H503.75V318.25H531V335.5C538.833 327.667 545.5 322.417 551 319.75C556.5 317.083 562.25 315.75 568.25 315.75C582.083 315.75 592.75 320.917 600.25 331.25C607.75 341.583 611.5 356.083 611.5 374.75V388.25C611.5 406.417 606.917 420.833 597.75 431.5C588.583 442.167 575.333 447.5 558 447.5ZM560.5 342.5C556.667 342.5 552.583 343.667 548.25 346C544.083 348.167 538.833 352.417 532.5 358.75V416.75C540.667 420.083 548.167 421.75 555 421.75C564.667 421.75 571.583 418.75 575.75 412.75C579.917 406.75 582 398.583 582 388.25V374.75C582 363.583 580.083 355.417 576.25 350.25C572.583 345.083 567.333 342.5 560.5 342.5ZM740.863 446.25C732.363 446.25 725.53 444.5 720.363 441C715.363 437.5 711.697 433.167 709.363 428C702.197 434.667 695.28 439.583 688.613 442.75C681.947 445.917 674.78 447.5 667.113 447.5C655.947 447.5 647.697 443.917 642.363 436.75C637.197 429.583 634.613 420.5 634.613 409.5C634.613 402.167 635.947 395.75 638.613 390.25C641.447 384.583 646.03 380.167 652.363 377C658.697 373.833 667.363 372.25 678.363 372.25C682.697 372.25 687.197 372.583 691.863 373.25C696.53 373.75 701.197 374.417 705.863 375.25V360.5C705.863 353.5 703.947 348.75 700.113 346.25C696.28 343.583 691.113 342.25 684.613 342.25C679.613 342.25 674.113 342.917 668.113 344.25C662.28 345.583 655.947 347.667 649.113 350.5L640.863 326C657.697 319.167 672.947 315.75 686.613 315.75C698.947 315.75 708.447 317.833 715.113 322C721.947 326.167 726.697 331.667 729.363 338.5C732.03 345.333 733.363 352.667 733.363 360.5V409.25C733.363 411.75 734.03 414.167 735.363 416.5C736.863 418.667 739.697 419.75 743.863 419.75H746.613V446.25H740.863ZM662.363 409C662.363 413.5 663.363 417.083 665.363 419.75C667.363 422.25 670.28 423.5 674.113 423.5C677.947 423.5 682.28 422.5 687.113 420.5C691.947 418.5 698.197 413.833 705.863 406.5V395.75C697.197 394.25 688.697 393.5 680.363 393.5C673.863 393.5 669.197 394.833 666.363 397.5C663.697 400.167 662.363 404 662.363 409ZM819.16 457.5C813.66 472.833 806.66 483.833 798.16 490.5C789.66 497.333 777.993 500.75 763.16 500.75V472C771.993 471.667 778.91 469.667 783.91 466C789.077 462.5 792.91 457.583 795.41 451.25L797.66 445.5L752.41 318.25H780.91L802.66 381.5L811.16 408.25L819.41 381.5L840.16 318.25H868.66L819.16 457.5ZM928.166 422.5C934.333 422.5 939.416 421.5 943.416 419.5C947.416 417.333 949.416 414.167 949.416 410C949.416 406.333 948.083 403.5 945.416 401.5C942.916 399.333 938.333 397.417 931.666 395.75L917.416 392C906.416 389.167 898.249 384.417 892.916 377.75C887.749 371.083 885.166 363.167 885.166 354C885.166 343.167 888.916 334.083 896.416 326.75C903.916 319.417 915.499 315.75 931.166 315.75C937.499 315.75 944.166 316.5 951.166 318C958.166 319.5 965.499 321.917 973.166 325.25L964.916 349.75C957.916 346.417 951.583 344.083 945.916 342.75C940.249 341.417 935.249 340.75 930.916 340.75C919.083 340.75 913.166 344.75 913.166 352.75C913.166 355.917 914.166 358.417 916.166 360.25C918.333 362.083 922.249 363.75 927.916 365.25L942.166 369C954.333 372.167 963.166 377 968.666 383.5C974.333 390 977.166 398.167 977.166 408C977.166 419.667 973.166 429.167 965.166 436.5C957.333 443.833 944.916 447.5 927.916 447.5C913.416 447.5 898.166 444.167 882.166 437.5L889.916 413.75C897.749 416.917 904.833 419.167 911.166 420.5C917.499 421.833 923.166 422.5 928.166 422.5ZM1102.68 446.25C1094.18 446.25 1087.35 444.5 1082.18 441C1077.18 437.5 1073.51 433.167 1071.18 428C1064.01 434.667 1057.1 439.583 1050.43 442.75C1043.76 445.917 1036.6 447.5 1028.93 447.5C1017.76 447.5 1009.51 443.917 1004.18 436.75C999.013 429.583 996.43 420.5 996.43 409.5C996.43 402.167 997.763 395.75 1000.43 390.25C1003.26 384.583 1007.85 380.167 1014.18 377C1020.51 373.833 1029.18 372.25 1040.18 372.25C1044.51 372.25 1049.01 372.583 1053.68 373.25C1058.35 373.75 1063.01 374.417 1067.68 375.25V360.5C1067.68 353.5 1065.76 348.75 1061.93 346.25C1058.1 343.583 1052.93 342.25 1046.43 342.25C1041.43 342.25 1035.93 342.917 1029.93 344.25C1024.1 345.583 1017.76 347.667 1010.93 350.5L1002.68 326C1019.51 319.167 1034.76 315.75 1048.43 315.75C1060.76 315.75 1070.26 317.833 1076.93 322C1083.76 326.167 1088.51 331.667 1091.18 338.5C1093.85 345.333 1095.18 352.667 1095.18 360.5V409.25C1095.18 411.75 1095.85 414.167 1097.18 416.5C1098.68 418.667 1101.51 419.75 1105.68 419.75H1108.43V446.25H1102.68ZM1024.18 409C1024.18 413.5 1025.18 417.083 1027.18 419.75C1029.18 422.25 1032.1 423.5 1035.93 423.5C1039.76 423.5 1044.1 422.5 1048.93 420.5C1053.76 418.5 1060.01 413.833 1067.68 406.5V395.75C1059.01 394.25 1050.51 393.5 1042.18 393.5C1035.68 393.5 1031.01 394.833 1028.18 397.5C1025.51 400.167 1024.18 404 1024.18 409ZM1195.39 342.5C1191.22 342.5 1186.47 343.5 1181.14 345.5C1175.81 347.5 1169.47 351.417 1162.14 357.25V445H1133.39V318.25H1160.64V335.25C1168.47 328.417 1175.89 323.5 1182.89 320.5C1189.89 317.333 1196.97 315.75 1204.14 315.75C1216.31 315.75 1225.56 319.667 1231.89 327.5C1238.22 335.167 1241.39 346 1241.39 360V445H1212.64V363.5C1212.64 349.5 1206.89 342.5 1195.39 342.5ZM1341.38 342.5C1337.22 342.5 1332.47 343.5 1327.13 345.5C1321.8 347.5 1315.47 351.417 1308.13 357.25V445H1279.38V318.25H1306.63V335.25C1314.47 328.417 1321.88 323.5 1328.88 320.5C1335.88 317.333 1342.97 315.75 1350.13 315.75C1362.3 315.75 1371.55 319.667 1377.88 327.5C1384.22 335.167 1387.38 346 1387.38 360V445H1358.63V363.5C1358.63 349.5 1352.88 342.5 1341.38 342.5ZM1521.63 437.75C1512.96 441.25 1504.8 443.75 1497.13 445.25C1489.46 446.75 1482.21 447.5 1475.38 447.5C1456.55 447.5 1442.3 442.167 1432.63 431.5C1422.96 420.833 1418.13 406.667 1418.13 389V374C1418.13 362.167 1420.3 351.917 1424.63 343.25C1428.96 334.583 1435.13 327.833 1443.13 323C1451.13 318.167 1460.55 315.75 1471.38 315.75C1480.21 315.75 1488.46 317.583 1496.13 321.25C1503.96 324.75 1510.3 330.333 1515.13 338C1520.13 345.5 1522.63 355.167 1522.63 367C1522.63 370.5 1522.38 374.25 1521.88 378.25C1521.38 382.083 1520.55 386.167 1519.38 390.5H1445.88C1446.21 400.833 1448.8 408.583 1453.63 413.75C1458.46 418.917 1466.21 421.5 1476.88 421.5C1482.55 421.5 1488.38 420.833 1494.38 419.5C1500.55 418.167 1506.88 416.167 1513.38 413.5L1521.63 437.75ZM1471.38 340C1463.71 340 1457.71 342.5 1453.38 347.5C1449.21 352.333 1446.8 359.333 1446.13 368.5H1494.13C1494.3 367.667 1494.38 366.917 1494.38 366.25C1494.38 365.417 1494.38 364.667 1494.38 364C1494.38 356 1492.13 350 1487.63 346C1483.13 342 1477.71 340 1471.38 340Z" fill="black"/>
<path d="M555.1 637L546.4 610.75H505.15L496.6 637H487.3L521.2 535H530.95L565 637H555.1ZM514.45 582.55L508 602.05H543.4L536.95 582.55L525.7 547.75L514.45 582.55ZM585.479 637V535H615.179C626.579 535 635.379 538.6 641.579 545.8C647.779 553 650.879 562.55 650.879 574.45V597.4C650.879 609.4 647.779 619 641.579 626.2C635.379 633.4 626.579 637 615.179 637H585.479ZM615.179 543.85H595.229V628.15H615.179C623.479 628.15 629.779 625.45 634.079 620.05C638.479 614.55 640.679 607 640.679 597.4V574.45C640.679 564.85 638.479 557.35 634.079 551.95C629.779 546.55 623.479 543.85 615.179 543.85ZM736.486 628.15V637H680.986V535H734.986V543.85H690.736V580.9H730.486V589.75H690.736V628.15H736.486ZM814.084 637L805.384 610.75H764.134L755.584 637H746.284L780.184 535H789.934L823.984 637H814.084ZM773.434 582.55L766.984 602.05H802.384L795.934 582.55L784.684 547.75L773.434 582.55ZM854.213 595.3V637H844.463V535H874.913C884.113 535 891.213 537.45 896.213 542.35C901.313 547.15 903.863 553.65 903.863 561.85V568.3C903.863 574.4 902.413 579.65 899.513 584.05C896.613 588.45 892.413 591.6 886.913 593.5C891.313 600.4 895.413 607.5 899.213 614.8C903.113 622.1 906.713 629.5 910.013 637H898.613C895.613 629.8 892.313 622.75 888.713 615.85C885.113 608.85 881.263 602 877.163 595.3H854.213ZM874.913 543.85H854.213V586.45H874.913C880.513 586.45 885.013 584.85 888.413 581.65C891.913 578.35 893.663 573.9 893.663 568.3V561.85C893.663 556.15 891.913 551.75 888.413 548.65C885.013 545.45 880.513 543.85 874.913 543.85ZM1014.89 611.05C1014.89 619.55 1012.29 626.25 1007.09 631.15C1001.99 636.05 994.035 638.5 983.235 638.5C978.835 638.5 974.185 638 969.285 637C964.485 636 959.735 634.4 955.035 632.2L958.035 624.4C962.735 626.6 967.135 628.1 971.235 628.9C975.435 629.6 979.435 629.95 983.235 629.95C989.935 629.95 995.235 628.5 999.135 625.6C1003.04 622.7 1004.99 617.85 1004.99 611.05V608.5C1004.99 602.7 1003.39 598.1 1000.19 594.7C996.985 591.3 991.985 589.6 985.185 589.6H970.785V581.35H985.185C991.685 581.35 996.435 579.7 999.435 576.4C1002.44 573.1 1003.94 568.65 1003.94 563.05V560.95C1003.94 554.15 1002.09 549.3 998.385 546.4C994.785 543.5 989.885 542.05 983.685 542.05C980.185 542.05 976.485 542.45 972.585 543.25C968.785 544.05 964.685 545.45 960.285 547.45L956.985 539.65C961.485 537.55 965.985 536 970.485 535C975.085 534 979.485 533.5 983.685 533.5C993.985 533.5 1001.59 535.95 1006.49 540.85C1011.39 545.75 1013.84 552.45 1013.84 560.95V563.05C1013.84 568.25 1012.64 572.8 1010.24 576.7C1007.84 580.5 1004.44 583.4 1000.04 585.4C1004.64 587.4 1008.24 590.4 1010.84 594.4C1013.54 598.3 1014.89 603 1014.89 608.5V611.05ZM1090.5 542.05C1082.6 557.95 1075.9 573.8 1070.4 589.6C1064.9 605.4 1060.85 621.2 1058.25 637H1048.5C1051.1 621.4 1055.1 605.85 1060.5 590.35C1066 574.75 1072.65 559.15 1080.45 543.55H1030.95V535H1090.5V542.05ZM1158.46 637H1148.71V535H1158.46V637ZM1224.6 571C1221.5 571 1217.95 571.75 1213.95 573.25C1209.95 574.75 1204.95 577.95 1198.95 582.85V637H1189.95V563.95H1198.5V574.45C1204.3 569.65 1209.4 566.45 1213.8 564.85C1218.2 563.25 1222.3 562.45 1226.1 562.45C1232.8 562.45 1237.9 564.5 1241.4 568.6C1244.9 572.7 1246.65 578.6 1246.65 586.3V637H1237.65V587.95C1237.65 582.05 1236.55 577.75 1234.35 575.05C1232.25 572.35 1229 571 1224.6 571ZM1320.07 637V626.65C1315.57 630.75 1311.27 633.75 1307.17 635.65C1303.07 637.55 1298.87 638.5 1294.57 638.5C1286.97 638.5 1281.12 635.55 1277.02 629.65C1272.92 623.75 1270.87 615.5 1270.87 604.9V595.9C1270.87 585.7 1273.42 577.6 1278.52 571.6C1283.62 565.5 1291.07 562.45 1300.87 562.45C1304.07 562.45 1307.22 562.8 1310.32 563.5C1313.42 564.1 1316.52 565 1319.62 566.2V526H1328.62V637H1320.07ZM1280.32 604.9C1280.32 613.5 1281.62 619.85 1284.22 623.95C1286.82 627.95 1290.87 629.95 1296.37 629.95C1299.57 629.95 1302.87 629.15 1306.27 627.55C1309.77 625.95 1314.22 622.7 1319.62 617.8V574.9C1313.42 572.1 1307.32 570.7 1301.32 570.7C1293.82 570.7 1288.42 572.95 1285.12 577.45C1281.92 581.95 1280.32 588.1 1280.32 595.9V604.9ZM1393.39 571.45C1389.19 571.45 1384.99 572.25 1380.79 573.85C1376.59 575.45 1371.69 579 1366.09 584.5V637H1357.09V563.95H1365.64V576.1C1370.74 570.8 1375.49 567.2 1379.89 565.3C1384.29 563.4 1388.79 562.45 1393.39 562.45V571.45ZM1461.42 632.65C1457.32 634.75 1453.02 636.25 1448.52 637.15C1444.12 638.05 1440.12 638.5 1436.52 638.5C1426.32 638.5 1418.72 635.55 1413.72 629.65C1408.82 623.75 1406.37 615.5 1406.37 604.9V595.9C1406.37 585.8 1408.87 577.7 1413.87 571.6C1418.87 565.5 1426.07 562.45 1435.47 562.45C1442.87 562.45 1449.07 564.65 1454.07 569.05C1459.17 573.45 1461.72 580.1 1461.72 589C1461.72 593.1 1461.12 597.8 1459.92 603.1H1415.52V604.9C1415.52 613.1 1417.17 619.4 1420.47 623.8C1423.77 628.1 1429.12 630.25 1436.52 630.25C1439.52 630.25 1442.97 629.85 1446.87 629.05C1450.87 628.25 1454.72 627 1458.42 625.3L1461.42 632.65ZM1435.47 570.7C1428.77 570.7 1423.77 572.9 1420.47 577.3C1417.17 581.6 1415.52 587.55 1415.52 595.15H1452.27C1452.47 593.85 1452.62 592.65 1452.72 591.55C1452.82 590.35 1452.87 589.25 1452.87 588.25C1452.87 582.05 1451.12 577.6 1447.62 574.9C1444.22 572.1 1440.17 570.7 1435.47 570.7ZM1478.84 596.65V588.7H1518.44V596.65H1478.84ZM1592.96 632.65C1588.86 634.75 1584.56 636.25 1580.06 637.15C1575.66 638.05 1571.66 638.5 1568.06 638.5C1557.86 638.5 1550.26 635.55 1545.26 629.65C1540.36 623.75 1537.91 615.5 1537.91 604.9V595.9C1537.91 585.8 1540.41 577.7 1545.41 571.6C1550.41 565.5 1557.61 562.45 1567.01 562.45C1574.41 562.45 1580.61 564.65 1585.61 569.05C1590.71 573.45 1593.26 580.1 1593.26 589C1593.26 593.1 1592.66 597.8 1591.46 603.1H1547.06V604.9C1547.06 613.1 1548.71 619.4 1552.01 623.8C1555.31 628.1 1560.66 630.25 1568.06 630.25C1571.06 630.25 1574.51 629.85 1578.41 629.05C1582.41 628.25 1586.26 627 1589.96 625.3L1592.96 632.65ZM1567.01 570.7C1560.31 570.7 1555.31 572.9 1552.01 577.3C1548.71 581.6 1547.06 587.55 1547.06 595.15H1583.81C1584.01 593.85 1584.16 592.65 1584.26 591.55C1584.36 590.35 1584.41 589.25 1584.41 588.25C1584.41 582.05 1582.66 577.6 1579.16 574.9C1575.76 572.1 1571.71 570.7 1567.01 570.7ZM1652.98 634.15C1647.48 637.05 1641.93 638.5 1636.33 638.5C1631.33 638.5 1627.43 637.5 1624.63 635.5C1621.83 633.4 1619.88 630.65 1618.78 627.25C1617.68 623.85 1617.13 620.25 1617.13 616.45V571.9H1603.78V563.95H1617.13V542.65H1626.13V563.95H1650.88V571.9H1626.13V615.7C1626.13 621.3 1626.98 625.2 1628.68 627.4C1630.48 629.5 1633.38 630.55 1637.38 630.55C1641.18 630.55 1645.33 629.35 1649.83 626.95L1652.98 634.15ZM1665.02 596.65V588.7H1704.62V596.65H1665.02ZM1784.69 628.15V637H1730.84V535H1740.59V628.15H1784.69ZM1856.46 595.9V604.9C1856.46 615.5 1853.81 623.75 1848.51 629.65C1843.21 635.55 1835.76 638.5 1826.16 638.5C1816.46 638.5 1808.96 635.55 1803.66 629.65C1798.46 623.75 1795.86 615.5 1795.86 604.9V595.9C1795.86 585.7 1798.46 577.6 1803.66 571.6C1808.96 565.5 1816.46 562.45 1826.16 562.45C1835.86 562.45 1843.31 565.5 1848.51 571.6C1853.81 577.6 1856.46 585.7 1856.46 595.9ZM1847.01 595.9C1847.01 587.9 1845.21 581.7 1841.61 577.3C1838.01 572.9 1832.86 570.7 1826.16 570.7C1819.46 570.7 1814.31 572.9 1810.71 577.3C1807.11 581.7 1805.31 587.9 1805.31 595.9V604.9C1805.31 613.2 1807.11 619.5 1810.71 623.8C1814.31 628.1 1819.46 630.25 1826.16 630.25C1832.86 630.25 1838.01 628.1 1841.61 623.8C1845.21 619.5 1847.01 613.2 1847.01 604.9V595.9ZM1890.82 543.1H1880.02V532.15H1890.82V543.1ZM1889.92 637H1880.92V563.95H1889.92V637ZM1954.72 571.45C1950.52 571.45 1946.32 572.25 1942.12 573.85C1937.92 575.45 1933.02 579 1927.42 584.5V637H1918.42V563.95H1926.97V576.1C1932.07 570.8 1936.82 567.2 1941.22 565.3C1945.62 563.4 1950.12 562.45 1954.72 562.45V571.45ZM2022.74 632.65C2018.64 634.75 2014.34 636.25 2009.84 637.15C2005.44 638.05 2001.44 638.5 1997.84 638.5C1987.64 638.5 1980.04 635.55 1975.04 629.65C1970.14 623.75 1967.69 615.5 1967.69 604.9V595.9C1967.69 585.8 1970.19 577.7 1975.19 571.6C1980.19 565.5 1987.39 562.45 1996.79 562.45C2004.19 562.45 2010.39 564.65 2015.39 569.05C2020.49 573.45 2023.04 580.1 2023.04 589C2023.04 593.1 2022.44 597.8 2021.24 603.1H1976.84V604.9C1976.84 613.1 1978.49 619.4 1981.79 623.8C1985.09 628.1 1990.44 630.25 1997.84 630.25C2000.84 630.25 2004.29 629.85 2008.19 629.05C2012.19 628.25 2016.04 627 2019.74 625.3L2022.74 632.65ZM1996.79 570.7C1990.09 570.7 1985.09 572.9 1981.79 577.3C1978.49 581.6 1976.84 587.55 1976.84 595.15H2013.59C2013.79 593.85 2013.94 592.65 2014.04 591.55C2014.14 590.35 2014.19 589.25 2014.19 588.25C2014.19 582.05 2012.44 577.6 2008.94 574.9C2005.54 572.1 2001.49 570.7 1996.79 570.7Z" fill="black"/>
</svg>
